<svg width="420"  height="385"><rect x="0" y="0" style="fill:white;stroke-width:0;" width="420"  height="385"/><line  style="stroke:black;stroke-width:2"  x1="140" x2="140" y1="0" y2="35"/><line  style="stroke:black;stroke-width:2"  x1="175" x2="175" y1="0" y2="35"/><line  style="stroke:black;stroke-width:2"  x1="140" x2="175" y1="0" y2="0"/><line  style="stroke:black;stroke-width:2"  x1="140" x2="175" y1="35" y2="35"/><text x="147" y="28" fill="black" style="font-size:25; bold">⋮</text>
<line  style="stroke:black;stroke-width:2"  x1="175" x2="175" y1="0" y2="35"/><line  style="stroke:black;stroke-width:2"  x1="210" x2="210" y1="0" y2="35"/><line  style="stroke:black;stroke-width:2"  x1="175" x2="210" y1="0" y2="0"/><line  style="stroke:black;stroke-width:2"  x1="175" x2="210" y1="35" y2="35"/><text x="182" y="28" fill="black" style="font-size:25; bold">⋮</text>
<line  style="stroke:black;stroke-width:2"  x1="210" x2="210" y1="0" y2="35"/><line  style="stroke:black;stroke-width:2"  x1="245" x2="245" y1="0" y2="35"/><line  style="stroke:black;stroke-width:2"  x1="210" x2="245" y1="0" y2="0"/><line  style="stroke:black;stroke-width:2"  x1="210" x2="245" y1="35" y2="35"/><text x="217" y="28" fill="black" style="font-size:25; bold">⋮</text>
<line  style="stroke:black;stroke-width:2"  x1="140" x2="140" y1="35" y2="70"/><line  style="stroke:black;stroke-width:2"  x1="175" x2="175" y1="35" y2="70"/><line  style="stroke:black;stroke-width:2"  x1="140" x2="175" y1="35" y2="35"/><line  style="stroke:black;stroke-width:2"  x1="140" x2="175" y1="70" y2="70"/><text x="147" y="63" fill="blue" style="font-size:25; bold">1</text>
<line  style="stroke:black;stroke-width:2"  x1="175" x2="175" y1="35" y2="70"/><line  style="stroke:black;stroke-width:2"  x1="210" x2="210" y1="35" y2="70"/><line  style="stroke:black;stroke-width:2"  x1="175" x2="210" y1="35" y2="35"/><line  style="stroke:black;stroke-width:2"  x1="175" x2="210" y1="70" y2="70"/><text x="182" y="63" fill="white" style="font-size:25; bold"> </text>
<line  style="stroke:black;stroke-width:2"  x1="210" x2="210" y1="35" y2="70"/><line  style="stroke:black;stroke-width:2"  x1="245" x2="245" y1="35" y2="70"/><line  style="stroke:black;stroke-width:2"  x1="210" x2="245" y1="35" y2="35"/><line  style="stroke:black;stroke-width:2"  x1="210" x2="245" y1="70" y2="70"/><text x="217" y="63" fill="blue" style="font-size:25; bold">1</text>
<line  style="stroke:black;stroke-width:2"  x1="140" x2="140" y1="70" y2="105"/><line  style="stroke:black;stroke-width:2"  x1="175" x2="175" y1="70" y2="105"/><line  style="stroke:black;stroke-width:2"  x1="140" x2="175" y1="70" y2="70"/><line  style="stroke:black;stroke-width:2"  x1="140" x2="175" y1="105" y2="105"/><text x="147" y="98" fill="blue" style="font-size:25; bold">1</text>
<line  style="stroke:black;stroke-width:2"  x1="175" x2="175" y1="70" y2="105"/><line  style="stroke:black;stroke-width:2"  x1="210" x2="210" y1="70" y2="105"/><line  style="stroke:black;stroke-width:2"  x1="175" x2="210" y1="70" y2="70"/><line  style="stroke:black;stroke-width:2"  x1="175" x2="210" y1="105" y2="105"/><text x="182" y="98" fill="white" style="font-size:25; bold"> </text>
<line  style="stroke:black;stroke-width:2"  x1="210" x2="210" y1="70" y2="105"/><line  style="stroke:black;stroke-width:2"  x1="245" x2="245" y1="70" y2="105"/><line  style="stroke:black;stroke-width:2"  x1="210" x2="245" y1="70" y2="70"/><line  style="stroke:black;stroke-width:2"  x1="210" x2="245" y1="105" y2="105"/><text x="217" y="98" fill="blue" style="font-size:25; bold">1</text>
<line  style="stroke:black;stroke-width:2"  x1="140" x2="140" y1="105" y2="140"/><line  style="stroke:black;stroke-width:2"  x1="175" x2="175" y1="105" y2="140"/><line  style="stroke:black;stroke-width:2"  x1="140" x2="175" y1="105" y2="105"/><line  style="stroke:black;stroke-width:2"  x1="140" x2="175" y1="140" y2="140"/><text x="147" y="133" fill="blue" style="font-size:25; bold">1</text>
<line  style="stroke:black;stroke-width:2"  x1="175" x2="175" y1="105" y2="140"/><line  style="stroke:black;stroke-width:2"  x1="210" x2="210" y1="105" y2="140"/><line  style="stroke:black;stroke-width:2"  x1="175" x2="210" y1="105" y2="105"/><line  style="stroke:black;stroke-width:2"  x1="175" x2="210" y1="140" y2="140"/><text x="182" y="133" fill="blue" style="font-size:25; bold">1</text>
<line  style="stroke:black;stroke-width:2"  x1="210" x2="210" y1="105" y2="140"/><line  style="stroke:black;stroke-width:2"  x1="245" x2="245" y1="105" y2="140"/><line  style="stroke:black;stroke-width:2"  x1="210" x2="245" y1="105" y2="105"/><line  style="stroke:black;stroke-width:2"  x1="210" x2="245" y1="140" y2="140"/><text x="217" y="133" fill="blue" style="font-size:25; bold">1</text>
<line  style="stroke:black;stroke-width:2"  x1="315" x2="315" y1="105" y2="140"/><line  style="stroke:black;stroke-width:2"  x1="350" x2="350" y1="105" y2="140"/><line  style="stroke:black;stroke-width:2"  x1="315" x2="350" y1="105" y2="105"/><line  style="stroke:black;stroke-width:2"  x1="315" x2="350" y1="140" y2="140"/><text x="322" y="133" fill="blue" style="font-size:25; bold">1</text>
<line  style="stroke:black;stroke-width:2"  x1="350" x2="350" y1="105" y2="140"/><line  style="stroke:black;stroke-width:2"  x1="385" x2="385" y1="105" y2="140"/><line  style="stroke:black;stroke-width:2"  x1="350" x2="385" y1="105" y2="105"/><line  style="stroke:black;stroke-width:2"  x1="350" x2="385" y1="140" y2="140"/><text x="357" y="133" fill="blue" style="font-size:25; bold">1</text>
<line  style="stroke:black;stroke-width:2"  x1="385" x2="385" y1="105" y2="140"/><line  style="stroke:black;stroke-width:2"  x1="420" x2="420" y1="105" y2="140"/><line  style="stroke:black;stroke-width:2"  x1="385" x2="420" y1="105" y2="105"/><line  style="stroke:black;stroke-width:2"  x1="385" x2="420" y1="140" y2="140"/><text x="392" y="133" fill="blue" style="font-size:25; bold">1</text>
<line  style="stroke:black;stroke-width:2"  x1="0" x2="0" y1="140" y2="175"/><line  style="stroke:black;stroke-width:2"  x1="35" x2="35" y1="140" y2="175"/><line  style="stroke:black;stroke-width:2"  x1="0" x2="35" y1="140" y2="140"/><line  style="stroke:black;stroke-width:2"  x1="0" x2="35" y1="175" y2="175"/><text x="7" y="168" fill="black" style="font-size:25; bold">…</text>
<line  style="stroke:black;stroke-width:2"  x1="35" x2="35" y1="140" y2="175"/><line  style="stroke:black;stroke-width:2"  x1="70" x2="70" y1="140" y2="175"/><line  style="stroke:black;stroke-width:2"  x1="35" x2="70" y1="140" y2="140"/><line  style="stroke:black;stroke-width:2"  x1="35" x2="70" y1="175" y2="175"/><text x="42" y="168" fill="blue" style="font-size:25; bold">1</text>
<line  style="stroke:black;stroke-width:2"  x1="70" x2="70" y1="140" y2="175"/><line  style="stroke:black;stroke-width:2"  x1="105" x2="105" y1="140" y2="175"/><line  style="stroke:black;stroke-width:2"  x1="70" x2="105" y1="140" y2="140"/><line  style="stroke:black;stroke-width:2"  x1="70" x2="105" y1="175" y2="175"/><text x="77" y="168" fill="blue" style="font-size:25; bold">1</text>
<line  style="stroke:black;stroke-width:2"  x1="105" x2="105" y1="140" y2="175"/><line  style="stroke:black;stroke-width:2"  x1="140" x2="140" y1="140" y2="175"/><line  style="stroke:black;stroke-width:2"  x1="105" x2="140" y1="140" y2="140"/><line  style="stroke:black;stroke-width:2"  x1="105" x2="140" y1="175" y2="175"/><text x="112" y="168" fill="blue" style="font-size:25; bold">1</text>
<line  style="stroke:black;stroke-width:2"  x1="140" x2="140" y1="140" y2="175"/><line  style="stroke:black;stroke-width:2"  x1="175" x2="175" y1="140" y2="175"/><line  style="stroke:black;stroke-width:2"  x1="140" x2="175" y1="140" y2="140"/><line  style="stroke:black;stroke-width:2"  x1="140" x2="175" y1="175" y2="175"/><text x="147" y="168" fill="blue" style="font-size:25; bold">1</text>
<line  style="stroke:black;stroke-width:2"  x1="210" x2="210" y1="140" y2="175"/><line  style="stroke:black;stroke-width:2"  x1="245" x2="245" y1="140" y2="175"/><line  style="stroke:black;stroke-width:2"  x1="210" x2="245" y1="140" y2="140"/><line  style="stroke:black;stroke-width:2"  x1="210" x2="245" y1="175" y2="175"/><text x="217" y="168" fill="blue" style="font-size:25; bold">1</text>
<line  style="stroke:black;stroke-width:2"  x1="245" x2="245" y1="140" y2="175"/><line  style="stroke:black;stroke-width:2"  x1="280" x2="280" y1="140" y2="175"/><line  style="stroke:black;stroke-width:2"  x1="245" x2="280" y1="140" y2="140"/><line  style="stroke:black;stroke-width:2"  x1="245" x2="280" y1="175" y2="175"/><text x="252" y="168" fill="blue" style="font-size:25; bold">1</text>
<line  style="stroke:black;stroke-width:2"  x1="280" x2="280" y1="140" y2="175"/><line  style="stroke:black;stroke-width:2"  x1="315" x2="315" y1="140" y2="175"/><line  style="stroke:black;stroke-width:2"  x1="280" x2="315" y1="140" y2="140"/><line  style="stroke:black;stroke-width:2"  x1="280" x2="315" y1="175" y2="175"/><text x="287" y="168" fill="blue" style="font-size:25; bold">1</text>
<line  style="stroke:black;stroke-width:2"  x1="315" x2="315" y1="140" y2="175"/><line  style="stroke:black;stroke-width:2"  x1="350" x2="350" y1="140" y2="175"/><line  style="stroke:black;stroke-width:2"  x1="315" x2="350" y1="140" y2="140"/><line  style="stroke:black;stroke-width:2"  x1="315" x2="350" y1="175" y2="175"/><text x="322" y="168" fill="red" style="font-size:25; bold">3</text>
<line  style="stroke:black;stroke-width:2"  x1="350" x2="350" y1="140" y2="175"/><line  style="stroke:black;stroke-width:2"  x1="385" x2="385" y1="140" y2="175"/><line  style="stroke:black;stroke-width:2"  x1="350" x2="385" y1="140" y2="140"/><line  style="stroke:black;stroke-width:2"  x1="350" x2="385" y1="175" y2="175"/><circle cx='367' cy='157' r='11'/>
<line  style="stroke:black;stroke-width:2"  x1="385" x2="385" y1="140" y2="175"/><line  style="stroke:black;stroke-width:2"  x1="420" x2="420" y1="140" y2="175"/><line  style="stroke:black;stroke-width:2"  x1="385" x2="420" y1="140" y2="140"/><line  style="stroke:black;stroke-width:2"  x1="385" x2="420" y1="175" y2="175"/><text x="392" y="168" fill="green" style="font-size:25; bold">2</text>
<line  style="stroke:black;stroke-width:2"  x1="0" x2="0" y1="175" y2="210"/><line  style="stroke:black;stroke-width:2"  x1="35" x2="35" y1="175" y2="210"/><line  style="stroke:black;stroke-width:2"  x1="0" x2="35" y1="175" y2="175"/><line  style="stroke:black;stroke-width:2"  x1="0" x2="35" y1="210" y2="210"/><text x="7" y="203" fill="black" style="font-size:25; bold">…</text>
<line  style="stroke:black;stroke-width:2"  x1="35" x2="35" y1="175" y2="210"/><line  style="stroke:black;stroke-width:2"  x1="70" x2="70" y1="175" y2="210"/><line  style="stroke:black;stroke-width:2"  x1="35" x2="70" y1="175" y2="175"/><line  style="stroke:black;stroke-width:2"  x1="35" x2="70" y1="210" y2="210"/><text x="42" y="203" fill="white" style="font-size:25; bold"> </text>
<line  style="stroke:black;stroke-width:2"  x1="70" x2="70" y1="175" y2="210"/><line  style="stroke:black;stroke-width:2"  x1="105" x2="105" y1="175" y2="210"/><line  style="stroke:black;stroke-width:2"  x1="70" x2="105" y1="175" y2="175"/><line  style="stroke:black;stroke-width:2"  x1="70" x2="105" y1="210" y2="210"/><text x="77" y="203" fill="white" style="font-size:25; bold"> </text>
<line  style="stroke:black;stroke-width:2"  x1="105" x2="105" y1="175" y2="210"/><line  style="stroke:black;stroke-width:2"  x1="140" x2="140" y1="175" y2="210"/><line  style="stroke:black;stroke-width:2"  x1="105" x2="140" y1="175" y2="175"/><line  style="stroke:black;stroke-width:2"  x1="105" x2="140" y1="210" y2="210"/><text x="112" y="203" fill="blue" style="font-size:25; bold">1</text>
<line  style="stroke:black;stroke-width:2"  x1="140" x2="140" y1="175" y2="210"/><line  style="stroke:black;stroke-width:2"  x1="175" x2="175" y1="175" y2="210"/><line  style="stroke:black;stroke-width:2"  x1="140" x2="175" y1="175" y2="175"/><line  style="stroke:black;stroke-width:2"  x1="140" x2="175" y1="210" y2="210"/><text x="147" y="203" fill="white" style="font-size:25; bold"> </text>
<line  style="stroke:black;stroke-width:2"  x1="175" x2="175" y1="175" y2="210"/><line  style="stroke:black;stroke-width:2"  x1="210" x2="210" y1="175" y2="210"/><line  style="stroke:black;stroke-width:2"  x1="175" x2="210" y1="175" y2="175"/><line  style="stroke:black;stroke-width:2"  x1="175" x2="210" y1="210" y2="210"/><text x="182" y="203" fill="green" style="font-size:25; bold">2</text>
<line  style="stroke:black;stroke-width:2"  x1="210" x2="210" y1="175" y2="210"/><line  style="stroke:black;stroke-width:2"  x1="245" x2="245" y1="175" y2="210"/><line  style="stroke:black;stroke-width:2"  x1="210" x2="245" y1="175" y2="175"/><line  style="stroke:black;stroke-width:2"  x1="210" x2="245" y1="210" y2="210"/><text x="217" y="203" fill="white" style="font-size:25; bold"> </text>
<line  style="stroke:black;stroke-width:2"  x1="245" x2="245" y1="175" y2="210"/><line  style="stroke:black;stroke-width:2"  x1="280" x2="280" y1="175" y2="210"/><line  style="stroke:black;stroke-width:2"  x1="245" x2="280" y1="175" y2="175"/><line  style="stroke:black;stroke-width:2"  x1="245" x2="280" y1="210" y2="210"/><text x="252" y="203" fill="blue" style="font-size:25; bold">1</text>
<line  style="stroke:black;stroke-width:2"  x1="280" x2="280" y1="175" y2="210"/><line  style="stroke:black;stroke-width:2"  x1="315" x2="315" y1="175" y2="210"/><line  style="stroke:black;stroke-width:2"  x1="280" x2="315" y1="175" y2="175"/><line  style="stroke:black;stroke-width:2"  x1="280" x2="315" y1="210" y2="210"/><text x="287" y="203" fill="white" style="font-size:25; bold"> </text>
<line  style="stroke:black;stroke-width:2"  x1="315" x2="315" y1="175" y2="210"/><line  style="stroke:black;stroke-width:2"  x1="350" x2="350" y1="175" y2="210"/><line  style="stroke:black;stroke-width:2"  x1="315" x2="350" y1="175" y2="175"/><line  style="stroke:black;stroke-width:2"  x1="315" x2="350" y1="210" y2="210"/><text x="322" y="203" fill="white" style="font-size:25; bold"> </text>
<line  style="stroke:black;stroke-width:2"  x1="350" x2="350" y1="175" y2="210"/><line  style="stroke:black;stroke-width:2"  x1="385" x2="385" y1="175" y2="210"/><line  style="stroke:black;stroke-width:2"  x1="350" x2="385" y1="175" y2="175"/><line  style="stroke:black;stroke-width:2"  x1="350" x2="385" y1="210" y2="210"/><circle cx='367' cy='192' r='11'/>
<line  style="stroke:black;stroke-width:2"  x1="385" x2="385" y1="175" y2="210"/><line  style="stroke:black;stroke-width:2"  x1="420" x2="420" y1="175" y2="210"/><line  style="stroke:black;stroke-width:2"  x1="385" x2="420" y1="175" y2="175"/><line  style="stroke:black;stroke-width:2"  x1="385" x2="420" y1="210" y2="210"/><text x="392" y="203" fill="red" style="font-size:25; bold">3</text>
<line  style="stroke:black;stroke-width:2"  x1="0" x2="0" y1="210" y2="245"/><line  style="stroke:black;stroke-width:2"  x1="35" x2="35" y1="210" y2="245"/><line  style="stroke:black;stroke-width:2"  x1="0" x2="35" y1="210" y2="210"/><line  style="stroke:black;stroke-width:2"  x1="0" x2="35" y1="245" y2="245"/><text x="7" y="238" fill="black" style="font-size:25; bold">…</text>
<line  style="stroke:black;stroke-width:2"  x1="35" x2="35" y1="210" y2="245"/><line  style="stroke:black;stroke-width:2"  x1="70" x2="70" y1="210" y2="245"/><line  style="stroke:black;stroke-width:2"  x1="35" x2="70" y1="210" y2="210"/><line  style="stroke:black;stroke-width:2"  x1="35" x2="70" y1="245" y2="245"/><text x="42" y="238" fill="blue" style="font-size:25; bold">1</text>
<line  style="stroke:black;stroke-width:2"  x1="70" x2="70" y1="210" y2="245"/><line  style="stroke:black;stroke-width:2"  x1="105" x2="105" y1="210" y2="245"/><line  style="stroke:black;stroke-width:2"  x1="70" x2="105" y1="210" y2="210"/><line  style="stroke:black;stroke-width:2"  x1="70" x2="105" y1="245" y2="245"/><text x="77" y="238" fill="blue" style="font-size:25; bold">1</text>
<line  style="stroke:black;stroke-width:2"  x1="105" x2="105" y1="210" y2="245"/><line  style="stroke:black;stroke-width:2"  x1="140" x2="140" y1="210" y2="245"/><line  style="stroke:black;stroke-width:2"  x1="105" x2="140" y1="210" y2="210"/><line  style="stroke:black;stroke-width:2"  x1="105" x2="140" y1="245" y2="245"/><text x="112" y="238" fill="blue" style="font-size:25; bold">1</text>
<line  style="stroke:black;stroke-width:2"  x1="140" x2="140" y1="210" y2="245"/><line  style="stroke:black;stroke-width:2"  x1="175" x2="175" y1="210" y2="245"/><line  style="stroke:black;stroke-width:2"  x1="140" x2="175" y1="210" y2="210"/><line  style="stroke:black;stroke-width:2"  x1="140" x2="175" y1="245" y2="245"/><text x="147" y="238" fill="blue" style="font-size:25; bold">1</text>
<line  style="stroke:black;stroke-width:2"  x1="210" x2="210" y1="210" y2="245"/><line  style="stroke:black;stroke-width:2"  x1="245" x2="245" y1="210" y2="245"/><line  style="stroke:black;stroke-width:2"  x1="210" x2="245" y1="210" y2="210"/><line  style="stroke:black;stroke-width:2"  x1="210" x2="245" y1="245" y2="245"/><text x="217" y="238" fill="blue" style="font-size:25; bold">1</text>
<line  style="stroke:black;stroke-width:2"  x1="245" x2="245" y1="210" y2="245"/><line  style="stroke:black;stroke-width:2"  x1="280" x2="280" y1="210" y2="245"/><line  style="stroke:black;stroke-width:2"  x1="245" x2="280" y1="210" y2="210"/><line  style="stroke:black;stroke-width:2"  x1="245" x2="280" y1="245" y2="245"/><text x="252" y="238" fill="blue" style="font-size:25; bold">1</text>
<line  style="stroke:black;stroke-width:2"  x1="280" x2="280" y1="210" y2="245"/><line  style="stroke:black;stroke-width:2"  x1="315" x2="315" y1="210" y2="245"/><line  style="stroke:black;stroke-width:2"  x1="280" x2="315" y1="210" y2="210"/><line  style="stroke:black;stroke-width:2"  x1="280" x2="315" y1="245" y2="245"/><text x="287" y="238" fill="blue" style="font-size:25; bold">1</text>
<line  style="stroke:black;stroke-width:2"  x1="315" x2="315" y1="210" y2="245"/><line  style="stroke:black;stroke-width:2"  x1="350" x2="350" y1="210" y2="245"/><line  style="stroke:black;stroke-width:2"  x1="315" x2="350" y1="210" y2="210"/><line  style="stroke:black;stroke-width:2"  x1="315" x2="350" y1="245" y2="245"/><text x="322" y="238" fill="red" style="font-size:25; bold">3</text>
<line  style="stroke:black;stroke-width:2"  x1="350" x2="350" y1="210" y2="245"/><line  style="stroke:black;stroke-width:2"  x1="385" x2="385" y1="210" y2="245"/><line  style="stroke:black;stroke-width:2"  x1="350" x2="385" y1="210" y2="210"/><line  style="stroke:black;stroke-width:2"  x1="350" x2="385" y1="245" y2="245"/><circle cx='367' cy='227' r='11'/>
<line  style="stroke:black;stroke-width:2"  x1="385" x2="385" y1="210" y2="245"/><line  style="stroke:black;stroke-width:2"  x1="420" x2="420" y1="210" y2="245"/><line  style="stroke:black;stroke-width:2"  x1="385" x2="420" y1="210" y2="210"/><line  style="stroke:black;stroke-width:2"  x1="385" x2="420" y1="245" y2="245"/><text x="392" y="238" fill="green" style="font-size:25; bold">2</text>
<line  style="stroke:black;stroke-width:2"  x1="140" x2="140" y1="245" y2="280"/><line  style="stroke:black;stroke-width:2"  x1="175" x2="175" y1="245" y2="280"/><line  style="stroke:black;stroke-width:2"  x1="140" x2="175" y1="245" y2="245"/><line  style="stroke:black;stroke-width:2"  x1="140" x2="175" y1="280" y2="280"/><text x="147" y="273" fill="blue" style="font-size:25; bold">1</text>
<line  style="stroke:black;stroke-width:2"  x1="175" x2="175" y1="245" y2="280"/><line  style="stroke:black;stroke-width:2"  x1="210" x2="210" y1="245" y2="280"/><line  style="stroke:black;stroke-width:2"  x1="175" x2="210" y1="245" y2="245"/><line  style="stroke:black;stroke-width:2"  x1="175" x2="210" y1="280" y2="280"/><text x="182" y="273" fill="blue" style="font-size:25; bold">1</text>
<line  style="stroke:black;stroke-width:2"  x1="210" x2="210" y1="245" y2="280"/><line  style="stroke:black;stroke-width:2"  x1="245" x2="245" y1="245" y2="280"/><line  style="stroke:black;stroke-width:2"  x1="210" x2="245" y1="245" y2="245"/><line  style="stroke:black;stroke-width:2"  x1="210" x2="245" y1="280" y2="280"/><text x="217" y="273" fill="blue" style="font-size:25; bold">1</text>
<line  style="stroke:black;stroke-width:2"  x1="315" x2="315" y1="245" y2="280"/><line  style="stroke:black;stroke-width:2"  x1="350" x2="350" y1="245" y2="280"/><line  style="stroke:black;stroke-width:2"  x1="315" x2="350" y1="245" y2="245"/><line  style="stroke:black;stroke-width:2"  x1="315" x2="350" y1="280" y2="280"/><text x="322" y="273" fill="blue" style="font-size:25; bold">1</text>
<line  style="stroke:black;stroke-width:2"  x1="350" x2="350" y1="245" y2="280"/><line  style="stroke:black;stroke-width:2"  x1="385" x2="385" y1="245" y2="280"/><line  style="stroke:black;stroke-width:2"  x1="350" x2="385" y1="245" y2="245"/><line  style="stroke:black;stroke-width:2"  x1="350" x2="385" y1="280" y2="280"/><text x="357" y="273" fill="blue" style="font-size:25; bold">1</text>
<line  style="stroke:black;stroke-width:2"  x1="385" x2="385" y1="245" y2="280"/><line  style="stroke:black;stroke-width:2"  x1="420" x2="420" y1="245" y2="280"/><line  style="stroke:black;stroke-width:2"  x1="385" x2="420" y1="245" y2="245"/><line  style="stroke:black;stroke-width:2"  x1="385" x2="420" y1="280" y2="280"/><text x="392" y="273" fill="blue" style="font-size:25; bold">1</text>
<line  style="stroke:black;stroke-width:2"  x1="140" x2="140" y1="280" y2="315"/><line  style="stroke:black;stroke-width:2"  x1="175" x2="175" y1="280" y2="315"/><line  style="stroke:black;stroke-width:2"  x1="140" x2="175" y1="280" y2="280"/><line  style="stroke:black;stroke-width:2"  x1="140" x2="175" y1="315" y2="315"/><text x="147" y="308" fill="blue" style="font-size:25; bold">1</text>
<line  style="stroke:black;stroke-width:2"  x1="175" x2="175" y1="280" y2="315"/><line  style="stroke:black;stroke-width:2"  x1="210" x2="210" y1="280" y2="315"/><line  style="stroke:black;stroke-width:2"  x1="175" x2="210" y1="280" y2="280"/><line  style="stroke:black;stroke-width:2"  x1="175" x2="210" y1="315" y2="315"/><text x="182" y="308" fill="white" style="font-size:25; bold"> </text>
<line  style="stroke:black;stroke-width:2"  x1="210" x2="210" y1="280" y2="315"/><line  style="stroke:black;stroke-width:2"  x1="245" x2="245" y1="280" y2="315"/><line  style="stroke:black;stroke-width:2"  x1="210" x2="245" y1="280" y2="280"/><line  style="stroke:black;stroke-width:2"  x1="210" x2="245" y1="315" y2="315"/><text x="217" y="308" fill="blue" style="font-size:25; bold">1</text>
<line  style="stroke:black;stroke-width:2"  x1="140" x2="140" y1="315" y2="350"/><line  style="stroke:black;stroke-width:2"  x1="175" x2="175" y1="315" y2="350"/><line  style="stroke:black;stroke-width:2"  x1="140" x2="175" y1="315" y2="315"/><line  style="stroke:black;stroke-width:2"  x1="140" x2="175" y1="350" y2="350"/><text x="147" y="343" fill="blue" style="font-size:25; bold">1</text>
<line  style="stroke:black;stroke-width:2"  x1="175" x2="175" y1="315" y2="350"/><line  style="stroke:black;stroke-width:2"  x1="210" x2="210" y1="315" y2="350"/><line  style="stroke:black;stroke-width:2"  x1="175" x2="210" y1="315" y2="315"/><line  style="stroke:black;stroke-width:2"  x1="175" x2="210" y1="350" y2="350"/><text x="182" y="343" fill="white" style="font-size:25; bold"> </text>
<line  style="stroke:black;stroke-width:2"  x1="210" x2="210" y1="315" y2="350"/><line  style="stroke:black;stroke-width:2"  x1="245" x2="245" y1="315" y2="350"/><line  style="stroke:black;stroke-width:2"  x1="210" x2="245" y1="315" y2="315"/><line  style="stroke:black;stroke-width:2"  x1="210" x2="245" y1="350" y2="350"/><text x="217" y="343" fill="blue" style="font-size:25; bold">1</text>
<line  style="stroke:black;stroke-width:2"  x1="140" x2="140" y1="350" y2="385"/><line  style="stroke:black;stroke-width:2"  x1="175" x2="175" y1="350" y2="385"/><line  style="stroke:black;stroke-width:2"  x1="140" x2="175" y1="350" y2="350"/><line  style="stroke:black;stroke-width:2"  x1="140" x2="175" y1="385" y2="385"/><text x="147" y="378" fill="black" style="font-size:25; bold">⋮</text>
<line  style="stroke:black;stroke-width:2"  x1="175" x2="175" y1="350" y2="385"/><line  style="stroke:black;stroke-width:2"  x1="210" x2="210" y1="350" y2="385"/><line  style="stroke:black;stroke-width:2"  x1="175" x2="210" y1="350" y2="350"/><line  style="stroke:black;stroke-width:2"  x1="175" x2="210" y1="385" y2="385"/><text x="182" y="378" fill="black" style="font-size:25; bold">⋮</text>
<line  style="stroke:black;stroke-width:2"  x1="210" x2="210" y1="350" y2="385"/><line  style="stroke:black;stroke-width:2"  x1="245" x2="245" y1="350" y2="385"/><line  style="stroke:black;stroke-width:2"  x1="210" x2="245" y1="350" y2="350"/><line  style="stroke:black;stroke-width:2"  x1="210" x2="245" y1="385" y2="385"/><text x="217" y="378" fill="black" style="font-size:25; bold">⋮</text>
</svg>