<svg width="525"  height="175"><rect x="0" y="0" style="fill:white;stroke-width:0;" width="525"  height="175"/><line  style="stroke:black;stroke-width:2"  x1="0" x2="0" y1="0" y2="35"/><line  style="stroke:black;stroke-width:2"  x1="35" x2="35" y1="0" y2="35"/><line  style="stroke:black;stroke-width:2"  x1="0" x2="35" y1="0" y2="0"/><line  style="stroke:black;stroke-width:2"  x1="0" x2="35" y1="35" y2="35"/><text x="7" y="28" fill="brown" style="font-size:25; bold">0</text>
<line  style="stroke:black;stroke-width:2"  x1="35" x2="35" y1="0" y2="35"/><line  style="stroke:black;stroke-width:2"  x1="70" x2="70" y1="0" y2="35"/><line  style="stroke:black;stroke-width:2"  x1="35" x2="70" y1="0" y2="0"/><line  style="stroke:black;stroke-width:2"  x1="35" x2="70" y1="35" y2="35"/><text x="42" y="28" fill="brown" style="font-size:25; bold">0</text>
<line  style="stroke:black;stroke-width:2"  x1="70" x2="70" y1="0" y2="35"/><line  style="stroke:black;stroke-width:2"  x1="105" x2="105" y1="0" y2="35"/><line  style="stroke:black;stroke-width:2"  x1="70" x2="105" y1="0" y2="0"/><line  style="stroke:black;stroke-width:2"  x1="70" x2="105" y1="35" y2="35"/><text x="77" y="28" fill="brown" style="font-size:25; bold">0</text>
<line  style="stroke:black;stroke-width:2"  x1="105" x2="105" y1="0" y2="35"/><line  style="stroke:black;stroke-width:2"  x1="140" x2="140" y1="0" y2="35"/><line  style="stroke:black;stroke-width:2"  x1="105" x2="140" y1="0" y2="0"/><line  style="stroke:black;stroke-width:2"  x1="105" x2="140" y1="35" y2="35"/><text x="112" y="28" fill="brown" style="font-size:25; bold">0</text>
<line  style="stroke:black;stroke-width:2"  x1="140" x2="140" y1="0" y2="35"/><line  style="stroke:black;stroke-width:2"  x1="175" x2="175" y1="0" y2="35"/><line  style="stroke:black;stroke-width:2"  x1="140" x2="175" y1="0" y2="0"/><line  style="stroke:black;stroke-width:2"  x1="140" x2="175" y1="35" y2="35"/><text x="147" y="28" fill="brown" style="font-size:25; bold">0</text>
<line  style="stroke:black;stroke-width:2"  x1="175" x2="175" y1="0" y2="35"/><line  style="stroke:black;stroke-width:2"  x1="210" x2="210" y1="0" y2="35"/><line  style="stroke:black;stroke-width:2"  x1="175" x2="210" y1="0" y2="0"/><line  style="stroke:black;stroke-width:2"  x1="175" x2="210" y1="35" y2="35"/><text x="182" y="28" fill="brown" style="font-size:25; bold">0</text>
<line  style="stroke:black;stroke-width:2"  x1="210" x2="210" y1="0" y2="35"/><line  style="stroke:black;stroke-width:2"  x1="245" x2="245" y1="0" y2="35"/><line  style="stroke:black;stroke-width:2"  x1="210" x2="245" y1="0" y2="0"/><line  style="stroke:black;stroke-width:2"  x1="210" x2="245" y1="35" y2="35"/><text x="217" y="28" fill="brown" style="font-size:25; bold">0</text>
<line  style="stroke:black;stroke-width:2"  x1="245" x2="245" y1="0" y2="35"/><line  style="stroke:black;stroke-width:2"  x1="280" x2="280" y1="0" y2="35"/><line  style="stroke:black;stroke-width:2"  x1="245" x2="280" y1="0" y2="0"/><line  style="stroke:black;stroke-width:2"  x1="245" x2="280" y1="35" y2="35"/><text x="252" y="28" fill="brown" style="font-size:25; bold">0</text>
<line  style="stroke:black;stroke-width:2"  x1="280" x2="280" y1="0" y2="35"/><line  style="stroke:black;stroke-width:2"  x1="315" x2="315" y1="0" y2="35"/><line  style="stroke:black;stroke-width:2"  x1="280" x2="315" y1="0" y2="0"/><line  style="stroke:black;stroke-width:2"  x1="280" x2="315" y1="35" y2="35"/><text x="287" y="28" fill="brown" style="font-size:25; bold">0</text>
<line  style="stroke:black;stroke-width:2"  x1="315" x2="315" y1="0" y2="35"/><line  style="stroke:black;stroke-width:2"  x1="350" x2="350" y1="0" y2="35"/><line  style="stroke:black;stroke-width:2"  x1="315" x2="350" y1="0" y2="0"/><line  style="stroke:black;stroke-width:2"  x1="315" x2="350" y1="35" y2="35"/><text x="322" y="28" fill="brown" style="font-size:25; bold">0</text>
<line  style="stroke:black;stroke-width:2"  x1="350" x2="350" y1="0" y2="35"/><line  style="stroke:black;stroke-width:2"  x1="385" x2="385" y1="0" y2="35"/><line  style="stroke:black;stroke-width:2"  x1="350" x2="385" y1="0" y2="0"/><line  style="stroke:black;stroke-width:2"  x1="350" x2="385" y1="35" y2="35"/><text x="357" y="28" fill="brown" style="font-size:25; bold">0</text>
<line  style="stroke:black;stroke-width:2"  x1="385" x2="385" y1="0" y2="35"/><line  style="stroke:black;stroke-width:2"  x1="420" x2="420" y1="0" y2="35"/><line  style="stroke:black;stroke-width:2"  x1="385" x2="420" y1="0" y2="0"/><line  style="stroke:black;stroke-width:2"  x1="385" x2="420" y1="35" y2="35"/><text x="392" y="28" fill="brown" style="font-size:25; bold">0</text>
<line  style="stroke:black;stroke-width:2"  x1="420" x2="420" y1="0" y2="35"/><line  style="stroke:black;stroke-width:2"  x1="455" x2="455" y1="0" y2="35"/><line  style="stroke:black;stroke-width:2"  x1="420" x2="455" y1="0" y2="0"/><line  style="stroke:black;stroke-width:2"  x1="420" x2="455" y1="35" y2="35"/><text x="427" y="28" fill="brown" style="font-size:25; bold">0</text>
<line  style="stroke:black;stroke-width:2"  x1="455" x2="455" y1="0" y2="35"/><line  style="stroke:black;stroke-width:2"  x1="490" x2="490" y1="0" y2="35"/><line  style="stroke:black;stroke-width:2"  x1="455" x2="490" y1="0" y2="0"/><line  style="stroke:black;stroke-width:2"  x1="455" x2="490" y1="35" y2="35"/><text x="462" y="28" fill="brown" style="font-size:25; bold">0</text>
<line  style="stroke:black;stroke-width:2"  x1="490" x2="490" y1="0" y2="35"/><line  style="stroke:black;stroke-width:2"  x1="525" x2="525" y1="0" y2="35"/><line  style="stroke:black;stroke-width:2"  x1="490" x2="525" y1="0" y2="0"/><line  style="stroke:black;stroke-width:2"  x1="490" x2="525" y1="35" y2="35"/><text x="497" y="28" fill="brown" style="font-size:25; bold">0</text>
<line  style="stroke:black;stroke-width:2"  x1="0" x2="0" y1="35" y2="70"/><line  style="stroke:black;stroke-width:2"  x1="35" x2="35" y1="35" y2="70"/><line  style="stroke:black;stroke-width:2"  x1="0" x2="35" y1="35" y2="35"/><line  style="stroke:black;stroke-width:2"  x1="0" x2="35" y1="70" y2="70"/><text x="7" y="63" fill="blue" style="font-size:25; bold">1</text>
<line  style="stroke:black;stroke-width:2"  x1="35" x2="35" y1="35" y2="70"/><line  style="stroke:black;stroke-width:2"  x1="70" x2="70" y1="35" y2="70"/><line  style="stroke:black;stroke-width:2"  x1="35" x2="70" y1="35" y2="35"/><line  style="stroke:black;stroke-width:2"  x1="35" x2="70" y1="70" y2="70"/><text x="42" y="63" fill="blue" style="font-size:25; bold">1</text>
<line  style="stroke:black;stroke-width:2"  x1="70" x2="70" y1="35" y2="70"/><line  style="stroke:black;stroke-width:2"  x1="105" x2="105" y1="35" y2="70"/><line  style="stroke:black;stroke-width:2"  x1="70" x2="105" y1="35" y2="35"/><line  style="stroke:black;stroke-width:2"  x1="70" x2="105" y1="70" y2="70"/><text x="77" y="63" fill="blue" style="font-size:25; bold">1</text>
<line  style="stroke:black;stroke-width:2"  x1="105" x2="105" y1="35" y2="70"/><line  style="stroke:black;stroke-width:2"  x1="140" x2="140" y1="35" y2="70"/><line  style="stroke:black;stroke-width:2"  x1="105" x2="140" y1="35" y2="35"/><line  style="stroke:black;stroke-width:2"  x1="105" x2="140" y1="70" y2="70"/><text x="112" y="63" fill="blue" style="font-size:25; bold">1</text>
<line  style="stroke:black;stroke-width:2"  x1="140" x2="140" y1="35" y2="70"/><line  style="stroke:black;stroke-width:2"  x1="175" x2="175" y1="35" y2="70"/><line  style="stroke:black;stroke-width:2"  x1="140" x2="175" y1="35" y2="35"/><line  style="stroke:black;stroke-width:2"  x1="140" x2="175" y1="70" y2="70"/><text x="147" y="63" fill="blue" style="font-size:25; bold">1</text>
<line  style="stroke:black;stroke-width:2"  x1="175" x2="175" y1="35" y2="70"/><line  style="stroke:black;stroke-width:2"  x1="210" x2="210" y1="35" y2="70"/><line  style="stroke:black;stroke-width:2"  x1="175" x2="210" y1="35" y2="35"/><line  style="stroke:black;stroke-width:2"  x1="175" x2="210" y1="70" y2="70"/><text x="182" y="63" fill="blue" style="font-size:25; bold">1</text>
<line  style="stroke:black;stroke-width:2"  x1="210" x2="210" y1="35" y2="70"/><line  style="stroke:black;stroke-width:2"  x1="245" x2="245" y1="35" y2="70"/><line  style="stroke:black;stroke-width:2"  x1="210" x2="245" y1="35" y2="35"/><line  style="stroke:black;stroke-width:2"  x1="210" x2="245" y1="70" y2="70"/><text x="217" y="63" fill="blue" style="font-size:25; bold">1</text>
<line  style="stroke:black;stroke-width:2"  x1="245" x2="245" y1="35" y2="70"/><line  style="stroke:black;stroke-width:2"  x1="280" x2="280" y1="35" y2="70"/><line  style="stroke:black;stroke-width:2"  x1="245" x2="280" y1="35" y2="35"/><line  style="stroke:black;stroke-width:2"  x1="245" x2="280" y1="70" y2="70"/><text x="252" y="63" fill="blue" style="font-size:25; bold">1</text>
<line  style="stroke:black;stroke-width:2"  x1="280" x2="280" y1="35" y2="70"/><line  style="stroke:black;stroke-width:2"  x1="315" x2="315" y1="35" y2="70"/><line  style="stroke:black;stroke-width:2"  x1="280" x2="315" y1="35" y2="35"/><line  style="stroke:black;stroke-width:2"  x1="280" x2="315" y1="70" y2="70"/><text x="287" y="63" fill="blue" style="font-size:25; bold">1</text>
<line  style="stroke:black;stroke-width:2"  x1="315" x2="315" y1="35" y2="70"/><line  style="stroke:black;stroke-width:2"  x1="350" x2="350" y1="35" y2="70"/><line  style="stroke:black;stroke-width:2"  x1="315" x2="350" y1="35" y2="35"/><line  style="stroke:black;stroke-width:2"  x1="315" x2="350" y1="70" y2="70"/><text x="322" y="63" fill="blue" style="font-size:25; bold">1</text>
<line  style="stroke:black;stroke-width:2"  x1="350" x2="350" y1="35" y2="70"/><line  style="stroke:black;stroke-width:2"  x1="385" x2="385" y1="35" y2="70"/><line  style="stroke:black;stroke-width:2"  x1="350" x2="385" y1="35" y2="35"/><line  style="stroke:black;stroke-width:2"  x1="350" x2="385" y1="70" y2="70"/><text x="357" y="63" fill="blue" style="font-size:25; bold">1</text>
<line  style="stroke:black;stroke-width:2"  x1="385" x2="385" y1="35" y2="70"/><line  style="stroke:black;stroke-width:2"  x1="420" x2="420" y1="35" y2="70"/><line  style="stroke:black;stroke-width:2"  x1="385" x2="420" y1="35" y2="35"/><line  style="stroke:black;stroke-width:2"  x1="385" x2="420" y1="70" y2="70"/><text x="392" y="63" fill="blue" style="font-size:25; bold">1</text>
<line  style="stroke:black;stroke-width:2"  x1="420" x2="420" y1="35" y2="70"/><line  style="stroke:black;stroke-width:2"  x1="455" x2="455" y1="35" y2="70"/><line  style="stroke:black;stroke-width:2"  x1="420" x2="455" y1="35" y2="35"/><line  style="stroke:black;stroke-width:2"  x1="420" x2="455" y1="70" y2="70"/><text x="427" y="63" fill="blue" style="font-size:25; bold">1</text>
<line  style="stroke:black;stroke-width:2"  x1="455" x2="455" y1="35" y2="70"/><line  style="stroke:black;stroke-width:2"  x1="490" x2="490" y1="35" y2="70"/><line  style="stroke:black;stroke-width:2"  x1="455" x2="490" y1="35" y2="35"/><line  style="stroke:black;stroke-width:2"  x1="455" x2="490" y1="70" y2="70"/><text x="462" y="63" fill="blue" style="font-size:25; bold">1</text>
<line  style="stroke:black;stroke-width:2"  x1="490" x2="490" y1="35" y2="70"/><line  style="stroke:black;stroke-width:2"  x1="525" x2="525" y1="35" y2="70"/><line  style="stroke:black;stroke-width:2"  x1="490" x2="525" y1="35" y2="35"/><line  style="stroke:black;stroke-width:2"  x1="490" x2="525" y1="70" y2="70"/><text x="497" y="63" fill="blue" style="font-size:25; bold">1</text>
<line  style="stroke:black;stroke-width:2"  x1="35" x2="35" y1="70" y2="105"/><line  style="stroke:black;stroke-width:2"  x1="70" x2="70" y1="70" y2="105"/><line  style="stroke:black;stroke-width:2"  x1="35" x2="70" y1="70" y2="70"/><line  style="stroke:black;stroke-width:2"  x1="35" x2="70" y1="105" y2="105"/><text x="42" y="98" fill="blue" style="font-size:25; bold">1</text>
<line  style="stroke:black;stroke-width:2"  x1="140" x2="140" y1="70" y2="105"/><line  style="stroke:black;stroke-width:2"  x1="175" x2="175" y1="70" y2="105"/><line  style="stroke:black;stroke-width:2"  x1="140" x2="175" y1="70" y2="70"/><line  style="stroke:black;stroke-width:2"  x1="140" x2="175" y1="105" y2="105"/><text x="147" y="98" fill="blue" style="font-size:25; bold">1</text>
<line  style="stroke:black;stroke-width:2"  x1="245" x2="245" y1="70" y2="105"/><line  style="stroke:black;stroke-width:2"  x1="280" x2="280" y1="70" y2="105"/><line  style="stroke:black;stroke-width:2"  x1="245" x2="280" y1="70" y2="70"/><line  style="stroke:black;stroke-width:2"  x1="245" x2="280" y1="105" y2="105"/><text x="252" y="98" fill="blue" style="font-size:25; bold">1</text>
<line  style="stroke:black;stroke-width:2"  x1="350" x2="350" y1="70" y2="105"/><line  style="stroke:black;stroke-width:2"  x1="385" x2="385" y1="70" y2="105"/><line  style="stroke:black;stroke-width:2"  x1="350" x2="385" y1="70" y2="70"/><line  style="stroke:black;stroke-width:2"  x1="350" x2="385" y1="105" y2="105"/><text x="357" y="98" fill="blue" style="font-size:25; bold">1</text>
<line  style="stroke:black;stroke-width:2"  x1="455" x2="455" y1="70" y2="105"/><line  style="stroke:black;stroke-width:2"  x1="490" x2="490" y1="70" y2="105"/><line  style="stroke:black;stroke-width:2"  x1="455" x2="490" y1="70" y2="70"/><line  style="stroke:black;stroke-width:2"  x1="455" x2="490" y1="105" y2="105"/><text x="462" y="98" fill="blue" style="font-size:25; bold">1</text>
<line  style="stroke:black;stroke-width:2"  x1="0" x2="0" y1="105" y2="140"/><line  style="stroke:black;stroke-width:2"  x1="35" x2="35" y1="105" y2="140"/><line  style="stroke:black;stroke-width:2"  x1="0" x2="35" y1="105" y2="105"/><line  style="stroke:black;stroke-width:2"  x1="0" x2="35" y1="140" y2="140"/><text x="7" y="133" fill="blue" style="font-size:25; bold">1</text>
<line  style="stroke:black;stroke-width:2"  x1="35" x2="35" y1="105" y2="140"/><line  style="stroke:black;stroke-width:2"  x1="70" x2="70" y1="105" y2="140"/><line  style="stroke:black;stroke-width:2"  x1="35" x2="70" y1="105" y2="105"/><line  style="stroke:black;stroke-width:2"  x1="35" x2="70" y1="140" y2="140"/><text x="42" y="133" fill="blue" style="font-size:25; bold">1</text>
<line  style="stroke:black;stroke-width:2"  x1="70" x2="70" y1="105" y2="140"/><line  style="stroke:black;stroke-width:2"  x1="105" x2="105" y1="105" y2="140"/><line  style="stroke:black;stroke-width:2"  x1="70" x2="105" y1="105" y2="105"/><line  style="stroke:black;stroke-width:2"  x1="70" x2="105" y1="140" y2="140"/><text x="77" y="133" fill="blue" style="font-size:25; bold">1</text>
<line  style="stroke:black;stroke-width:2"  x1="105" x2="105" y1="105" y2="140"/><line  style="stroke:black;stroke-width:2"  x1="140" x2="140" y1="105" y2="140"/><line  style="stroke:black;stroke-width:2"  x1="105" x2="140" y1="105" y2="105"/><line  style="stroke:black;stroke-width:2"  x1="105" x2="140" y1="140" y2="140"/><text x="112" y="133" fill="blue" style="font-size:25; bold">1</text>
<line  style="stroke:black;stroke-width:2"  x1="140" x2="140" y1="105" y2="140"/><line  style="stroke:black;stroke-width:2"  x1="175" x2="175" y1="105" y2="140"/><line  style="stroke:black;stroke-width:2"  x1="140" x2="175" y1="105" y2="105"/><line  style="stroke:black;stroke-width:2"  x1="140" x2="175" y1="140" y2="140"/><text x="147" y="133" fill="blue" style="font-size:25; bold">1</text>
<line  style="stroke:black;stroke-width:2"  x1="175" x2="175" y1="105" y2="140"/><line  style="stroke:black;stroke-width:2"  x1="210" x2="210" y1="105" y2="140"/><line  style="stroke:black;stroke-width:2"  x1="175" x2="210" y1="105" y2="105"/><line  style="stroke:black;stroke-width:2"  x1="175" x2="210" y1="140" y2="140"/><text x="182" y="133" fill="blue" style="font-size:25; bold">1</text>
<line  style="stroke:black;stroke-width:2"  x1="210" x2="210" y1="105" y2="140"/><line  style="stroke:black;stroke-width:2"  x1="245" x2="245" y1="105" y2="140"/><line  style="stroke:black;stroke-width:2"  x1="210" x2="245" y1="105" y2="105"/><line  style="stroke:black;stroke-width:2"  x1="210" x2="245" y1="140" y2="140"/><text x="217" y="133" fill="blue" style="font-size:25; bold">1</text>
<line  style="stroke:black;stroke-width:2"  x1="245" x2="245" y1="105" y2="140"/><line  style="stroke:black;stroke-width:2"  x1="280" x2="280" y1="105" y2="140"/><line  style="stroke:black;stroke-width:2"  x1="245" x2="280" y1="105" y2="105"/><line  style="stroke:black;stroke-width:2"  x1="245" x2="280" y1="140" y2="140"/><text x="252" y="133" fill="blue" style="font-size:25; bold">1</text>
<line  style="stroke:black;stroke-width:2"  x1="280" x2="280" y1="105" y2="140"/><line  style="stroke:black;stroke-width:2"  x1="315" x2="315" y1="105" y2="140"/><line  style="stroke:black;stroke-width:2"  x1="280" x2="315" y1="105" y2="105"/><line  style="stroke:black;stroke-width:2"  x1="280" x2="315" y1="140" y2="140"/><text x="287" y="133" fill="blue" style="font-size:25; bold">1</text>
<line  style="stroke:black;stroke-width:2"  x1="315" x2="315" y1="105" y2="140"/><line  style="stroke:black;stroke-width:2"  x1="350" x2="350" y1="105" y2="140"/><line  style="stroke:black;stroke-width:2"  x1="315" x2="350" y1="105" y2="105"/><line  style="stroke:black;stroke-width:2"  x1="315" x2="350" y1="140" y2="140"/><text x="322" y="133" fill="blue" style="font-size:25; bold">1</text>
<line  style="stroke:black;stroke-width:2"  x1="350" x2="350" y1="105" y2="140"/><line  style="stroke:black;stroke-width:2"  x1="385" x2="385" y1="105" y2="140"/><line  style="stroke:black;stroke-width:2"  x1="350" x2="385" y1="105" y2="105"/><line  style="stroke:black;stroke-width:2"  x1="350" x2="385" y1="140" y2="140"/><text x="357" y="133" fill="blue" style="font-size:25; bold">1</text>
<line  style="stroke:black;stroke-width:2"  x1="385" x2="385" y1="105" y2="140"/><line  style="stroke:black;stroke-width:2"  x1="420" x2="420" y1="105" y2="140"/><line  style="stroke:black;stroke-width:2"  x1="385" x2="420" y1="105" y2="105"/><line  style="stroke:black;stroke-width:2"  x1="385" x2="420" y1="140" y2="140"/><text x="392" y="133" fill="blue" style="font-size:25; bold">1</text>
<line  style="stroke:black;stroke-width:2"  x1="420" x2="420" y1="105" y2="140"/><line  style="stroke:black;stroke-width:2"  x1="455" x2="455" y1="105" y2="140"/><line  style="stroke:black;stroke-width:2"  x1="420" x2="455" y1="105" y2="105"/><line  style="stroke:black;stroke-width:2"  x1="420" x2="455" y1="140" y2="140"/><text x="427" y="133" fill="blue" style="font-size:25; bold">1</text>
<line  style="stroke:black;stroke-width:2"  x1="455" x2="455" y1="105" y2="140"/><line  style="stroke:black;stroke-width:2"  x1="490" x2="490" y1="105" y2="140"/><line  style="stroke:black;stroke-width:2"  x1="455" x2="490" y1="105" y2="105"/><line  style="stroke:black;stroke-width:2"  x1="455" x2="490" y1="140" y2="140"/><text x="462" y="133" fill="blue" style="font-size:25; bold">1</text>
<line  style="stroke:black;stroke-width:2"  x1="490" x2="490" y1="105" y2="140"/><line  style="stroke:black;stroke-width:2"  x1="525" x2="525" y1="105" y2="140"/><line  style="stroke:black;stroke-width:2"  x1="490" x2="525" y1="105" y2="105"/><line  style="stroke:black;stroke-width:2"  x1="490" x2="525" y1="140" y2="140"/><text x="497" y="133" fill="blue" style="font-size:25; bold">1</text>
<line  style="stroke:black;stroke-width:2"  x1="0" x2="0" y1="140" y2="175"/><line  style="stroke:black;stroke-width:2"  x1="35" x2="35" y1="140" y2="175"/><line  style="stroke:black;stroke-width:2"  x1="0" x2="35" y1="140" y2="140"/><line  style="stroke:black;stroke-width:2"  x1="0" x2="35" y1="175" y2="175"/><text x="7" y="168" fill="brown" style="font-size:25; bold">0</text>
<line  style="stroke:black;stroke-width:2"  x1="35" x2="35" y1="140" y2="175"/><line  style="stroke:black;stroke-width:2"  x1="70" x2="70" y1="140" y2="175"/><line  style="stroke:black;stroke-width:2"  x1="35" x2="70" y1="140" y2="140"/><line  style="stroke:black;stroke-width:2"  x1="35" x2="70" y1="175" y2="175"/><text x="42" y="168" fill="brown" style="font-size:25; bold">0</text>
<line  style="stroke:black;stroke-width:2"  x1="70" x2="70" y1="140" y2="175"/><line  style="stroke:black;stroke-width:2"  x1="105" x2="105" y1="140" y2="175"/><line  style="stroke:black;stroke-width:2"  x1="70" x2="105" y1="140" y2="140"/><line  style="stroke:black;stroke-width:2"  x1="70" x2="105" y1="175" y2="175"/><text x="77" y="168" fill="brown" style="font-size:25; bold">0</text>
<line  style="stroke:black;stroke-width:2"  x1="105" x2="105" y1="140" y2="175"/><line  style="stroke:black;stroke-width:2"  x1="140" x2="140" y1="140" y2="175"/><line  style="stroke:black;stroke-width:2"  x1="105" x2="140" y1="140" y2="140"/><line  style="stroke:black;stroke-width:2"  x1="105" x2="140" y1="175" y2="175"/><text x="112" y="168" fill="brown" style="font-size:25; bold">0</text>
<line  style="stroke:black;stroke-width:2"  x1="140" x2="140" y1="140" y2="175"/><line  style="stroke:black;stroke-width:2"  x1="175" x2="175" y1="140" y2="175"/><line  style="stroke:black;stroke-width:2"  x1="140" x2="175" y1="140" y2="140"/><line  style="stroke:black;stroke-width:2"  x1="140" x2="175" y1="175" y2="175"/><text x="147" y="168" fill="brown" style="font-size:25; bold">0</text>
<line  style="stroke:black;stroke-width:2"  x1="175" x2="175" y1="140" y2="175"/><line  style="stroke:black;stroke-width:2"  x1="210" x2="210" y1="140" y2="175"/><line  style="stroke:black;stroke-width:2"  x1="175" x2="210" y1="140" y2="140"/><line  style="stroke:black;stroke-width:2"  x1="175" x2="210" y1="175" y2="175"/><text x="182" y="168" fill="brown" style="font-size:25; bold">0</text>
<line  style="stroke:black;stroke-width:2"  x1="210" x2="210" y1="140" y2="175"/><line  style="stroke:black;stroke-width:2"  x1="245" x2="245" y1="140" y2="175"/><line  style="stroke:black;stroke-width:2"  x1="210" x2="245" y1="140" y2="140"/><line  style="stroke:black;stroke-width:2"  x1="210" x2="245" y1="175" y2="175"/><text x="217" y="168" fill="brown" style="font-size:25; bold">0</text>
<line  style="stroke:black;stroke-width:2"  x1="245" x2="245" y1="140" y2="175"/><line  style="stroke:black;stroke-width:2"  x1="280" x2="280" y1="140" y2="175"/><line  style="stroke:black;stroke-width:2"  x1="245" x2="280" y1="140" y2="140"/><line  style="stroke:black;stroke-width:2"  x1="245" x2="280" y1="175" y2="175"/><text x="252" y="168" fill="brown" style="font-size:25; bold">0</text>
<line  style="stroke:black;stroke-width:2"  x1="280" x2="280" y1="140" y2="175"/><line  style="stroke:black;stroke-width:2"  x1="315" x2="315" y1="140" y2="175"/><line  style="stroke:black;stroke-width:2"  x1="280" x2="315" y1="140" y2="140"/><line  style="stroke:black;stroke-width:2"  x1="280" x2="315" y1="175" y2="175"/><text x="287" y="168" fill="brown" style="font-size:25; bold">0</text>
<line  style="stroke:black;stroke-width:2"  x1="315" x2="315" y1="140" y2="175"/><line  style="stroke:black;stroke-width:2"  x1="350" x2="350" y1="140" y2="175"/><line  style="stroke:black;stroke-width:2"  x1="315" x2="350" y1="140" y2="140"/><line  style="stroke:black;stroke-width:2"  x1="315" x2="350" y1="175" y2="175"/><text x="322" y="168" fill="brown" style="font-size:25; bold">0</text>
<line  style="stroke:black;stroke-width:2"  x1="350" x2="350" y1="140" y2="175"/><line  style="stroke:black;stroke-width:2"  x1="385" x2="385" y1="140" y2="175"/><line  style="stroke:black;stroke-width:2"  x1="350" x2="385" y1="140" y2="140"/><line  style="stroke:black;stroke-width:2"  x1="350" x2="385" y1="175" y2="175"/><text x="357" y="168" fill="brown" style="font-size:25; bold">0</text>
<line  style="stroke:black;stroke-width:2"  x1="385" x2="385" y1="140" y2="175"/><line  style="stroke:black;stroke-width:2"  x1="420" x2="420" y1="140" y2="175"/><line  style="stroke:black;stroke-width:2"  x1="385" x2="420" y1="140" y2="140"/><line  style="stroke:black;stroke-width:2"  x1="385" x2="420" y1="175" y2="175"/><text x="392" y="168" fill="brown" style="font-size:25; bold">0</text>
<line  style="stroke:black;stroke-width:2"  x1="420" x2="420" y1="140" y2="175"/><line  style="stroke:black;stroke-width:2"  x1="455" x2="455" y1="140" y2="175"/><line  style="stroke:black;stroke-width:2"  x1="420" x2="455" y1="140" y2="140"/><line  style="stroke:black;stroke-width:2"  x1="420" x2="455" y1="175" y2="175"/><text x="427" y="168" fill="brown" style="font-size:25; bold">0</text>
<line  style="stroke:black;stroke-width:2"  x1="455" x2="455" y1="140" y2="175"/><line  style="stroke:black;stroke-width:2"  x1="490" x2="490" y1="140" y2="175"/><line  style="stroke:black;stroke-width:2"  x1="455" x2="490" y1="140" y2="140"/><line  style="stroke:black;stroke-width:2"  x1="455" x2="490" y1="175" y2="175"/><text x="462" y="168" fill="brown" style="font-size:25; bold">0</text>
<line  style="stroke:black;stroke-width:2"  x1="490" x2="490" y1="140" y2="175"/><line  style="stroke:black;stroke-width:2"  x1="525" x2="525" y1="140" y2="175"/><line  style="stroke:black;stroke-width:2"  x1="490" x2="525" y1="140" y2="140"/><line  style="stroke:black;stroke-width:2"  x1="490" x2="525" y1="175" y2="175"/><text x="497" y="168" fill="brown" style="font-size:25; bold">0</text>
</svg>